# xmcd CD database file generated by freedbAccess_ocx
#
# Track frame offsets:
#       150
#       16855
#       37339
#       56134
#       71365
#       85736
#       104437
#       125779
#       153481
#       170709
#       186491
#
# Disc length: 2687 seconds
#
# Revision: 0
# Processed by: cddbd v1.5.1PL2 Copyright (c) Steve Scherf et al.
# Submitted via: CDnGo 2.00
#
DISCID=9e0a7d0b
DTITLE=Чиж and C. and Паша - Про слонов
DYEAR=2005
DGENRE=Acoustic
TTITLE0=Поезд
TTITLE1=Ливень
TTITLE2=Про слонов
TTITLE3=Мама
TTITLE4=Диалог
TTITLE5=Пойдём домой
TTITLE6=Метелица
TTITLE7=Колокольня
TTITLE8=Июльская ночь
TTITLE9=Улицы
TTITLE10=Кирпичи
EXTD=
EXTT0=
EXTT1=
EXTT2=
EXTT3=
EXTT4=
EXTT5=
EXTT6=
EXTT7=
EXTT8=
EXTT9=
EXTT10=
PLAYORDER=
